<mxfile host="app.diagrams.net" agent="Mozilla/5.0 (Macintosh; Intel Mac OS X 10_15_7) AppleWebKit/537.36 (KHTML, like Gecko) Chrome/116.0.0.0 Safari/537.36" version="24.7.15">
  <diagram name="Page-1" id="MCaT4VfWSc2_qvw3Y3vX">
    <mxGraphModel dx="1193" dy="1863" grid="1" gridSize="10" guides="1" tooltips="1" connect="1" arrows="1" fold="1" page="1" pageScale="1" pageWidth="850" pageHeight="1100" math="0" shadow="0">
      <root>
        <mxCell id="0" />
        <mxCell id="1" parent="0" />
        <mxCell id="xHsqIpkf5ebv9PDI0sne-1" value="Patient" style="ellipse;whiteSpace=wrap;html=1;aspect=fixed;fillColor=#f8cecc;strokeColor=#b85450;" vertex="1" parent="1">
          <mxGeometry x="40" y="200" width="80" height="80" as="geometry" />
        </mxCell>
        <mxCell id="xHsqIpkf5ebv9PDI0sne-7" value="Create account" style="rounded=1;whiteSpace=wrap;html=1;fillColor=#e1d5e7;strokeColor=#9673a6;" vertex="1" parent="1">
          <mxGeometry x="260" y="10" width="120" height="60" as="geometry" />
        </mxCell>
        <mxCell id="xHsqIpkf5ebv9PDI0sne-12" value="" style="endArrow=none;html=1;rounded=0;strokeColor=#028090;fontColor=#E4FDE1;fillColor=#F45B69;entryX=0.5;entryY=0;entryDx=0;entryDy=0;" edge="1" parent="1" target="xHsqIpkf5ebv9PDI0sne-1">
          <mxGeometry width="50" height="50" relative="1" as="geometry">
            <mxPoint x="80" y="40" as="sourcePoint" />
            <mxPoint x="220" y="170" as="targetPoint" />
          </mxGeometry>
        </mxCell>
        <mxCell id="xHsqIpkf5ebv9PDI0sne-13" value="" style="endArrow=classic;html=1;rounded=0;strokeColor=#028090;fontColor=#E4FDE1;fillColor=#F45B69;entryX=0;entryY=0.5;entryDx=0;entryDy=0;" edge="1" parent="1" target="xHsqIpkf5ebv9PDI0sne-7">
          <mxGeometry relative="1" as="geometry">
            <mxPoint x="80" y="40" as="sourcePoint" />
            <mxPoint x="160" y="120" as="targetPoint" />
          </mxGeometry>
        </mxCell>
        <mxCell id="xHsqIpkf5ebv9PDI0sne-14" value="First&lt;br&gt;Encounter" style="edgeLabel;resizable=0;html=1;;align=center;verticalAlign=middle;strokeColor=#028090;fontColor=#000000;fillColor=#F45B69;" connectable="0" vertex="1" parent="xHsqIpkf5ebv9PDI0sne-13">
          <mxGeometry relative="1" as="geometry" />
        </mxCell>
        <mxCell id="xHsqIpkf5ebv9PDI0sne-15" value="Log In" style="rounded=1;whiteSpace=wrap;html=1;fillColor=#e1d5e7;strokeColor=#9673a6;" vertex="1" parent="1">
          <mxGeometry x="260" y="130" width="120" height="60" as="geometry" />
        </mxCell>
        <mxCell id="xHsqIpkf5ebv9PDI0sne-19" value="Virtual Triage" style="rounded=1;whiteSpace=wrap;html=1;fillColor=#e1d5e7;strokeColor=#9673a6;" vertex="1" parent="1">
          <mxGeometry x="430" y="60" width="120" height="60" as="geometry" />
        </mxCell>
        <mxCell id="xHsqIpkf5ebv9PDI0sne-20" value="" style="endArrow=classic;html=1;rounded=0;strokeColor=#028090;fontColor=#E4FDE1;fillColor=#F45B69;" edge="1" parent="1">
          <mxGeometry width="50" height="50" relative="1" as="geometry">
            <mxPoint x="490" y="40" as="sourcePoint" />
            <mxPoint x="490" y="60" as="targetPoint" />
          </mxGeometry>
        </mxCell>
        <mxCell id="xHsqIpkf5ebv9PDI0sne-21" value="" style="endArrow=none;html=1;rounded=0;strokeColor=#028090;fontColor=#E4FDE1;fillColor=#F45B69;exitX=1;exitY=0.5;exitDx=0;exitDy=0;" edge="1" parent="1" source="xHsqIpkf5ebv9PDI0sne-7">
          <mxGeometry width="50" height="50" relative="1" as="geometry">
            <mxPoint x="400" y="220" as="sourcePoint" />
            <mxPoint x="490" y="40" as="targetPoint" />
          </mxGeometry>
        </mxCell>
        <mxCell id="xHsqIpkf5ebv9PDI0sne-22" value="" style="endArrow=none;html=1;rounded=0;strokeColor=#028090;fontColor=#E4FDE1;fillColor=#F45B69;exitX=1;exitY=0.5;exitDx=0;exitDy=0;" edge="1" parent="1" source="xHsqIpkf5ebv9PDI0sne-15">
          <mxGeometry width="50" height="50" relative="1" as="geometry">
            <mxPoint x="400" y="220" as="sourcePoint" />
            <mxPoint x="490" y="160" as="targetPoint" />
          </mxGeometry>
        </mxCell>
        <mxCell id="xHsqIpkf5ebv9PDI0sne-23" value="" style="endArrow=classic;html=1;rounded=0;strokeColor=#028090;fontColor=#E4FDE1;fillColor=#F45B69;entryX=0.5;entryY=1;entryDx=0;entryDy=0;" edge="1" parent="1" target="xHsqIpkf5ebv9PDI0sne-19">
          <mxGeometry width="50" height="50" relative="1" as="geometry">
            <mxPoint x="490" y="160" as="sourcePoint" />
            <mxPoint x="500" y="180" as="targetPoint" />
          </mxGeometry>
        </mxCell>
        <mxCell id="xHsqIpkf5ebv9PDI0sne-25" value="" style="endArrow=classic;html=1;rounded=0;strokeColor=#028090;fontColor=#000000;fillColor=#F45B69;entryX=0;entryY=0.5;entryDx=0;entryDy=0;" edge="1" parent="1" source="xHsqIpkf5ebv9PDI0sne-24" target="xHsqIpkf5ebv9PDI0sne-15">
          <mxGeometry relative="1" as="geometry">
            <mxPoint x="80" y="160" as="sourcePoint" />
            <mxPoint x="260" y="159.5" as="targetPoint" />
          </mxGeometry>
        </mxCell>
        <mxCell id="xHsqIpkf5ebv9PDI0sne-28" value="" style="endArrow=classic;html=1;rounded=0;strokeColor=#028090;fontColor=#000000;fillColor=#F45B69;entryX=0;entryY=0.5;entryDx=0;entryDy=0;" edge="1" parent="1" target="xHsqIpkf5ebv9PDI0sne-24">
          <mxGeometry relative="1" as="geometry">
            <mxPoint x="80" y="160" as="sourcePoint" />
            <mxPoint x="260" y="160" as="targetPoint" />
          </mxGeometry>
        </mxCell>
        <mxCell id="xHsqIpkf5ebv9PDI0sne-29" value="&lt;font color=&quot;#000000&quot;&gt;Has&lt;/font&gt;&lt;div&gt;&lt;font color=&quot;#000000&quot;&gt;Account&lt;/font&gt;&lt;/div&gt;" style="edgeLabel;resizable=0;html=1;;align=center;verticalAlign=middle;strokeColor=#028090;fontColor=#E4FDE1;fillColor=#F45B69;" connectable="0" vertex="1" parent="xHsqIpkf5ebv9PDI0sne-28">
          <mxGeometry relative="1" as="geometry">
            <mxPoint x="110" as="offset" />
          </mxGeometry>
        </mxCell>
        <mxCell id="xHsqIpkf5ebv9PDI0sne-24" value="OR" style="ellipse;whiteSpace=wrap;html=1;aspect=fixed;strokeColor=#6c8ebf;fillColor=#dae8fc;" vertex="1" parent="1">
          <mxGeometry x="60" y="140" width="40" height="40" as="geometry" />
        </mxCell>
        <mxCell id="xHsqIpkf5ebv9PDI0sne-30" value="OR" style="ellipse;whiteSpace=wrap;html=1;aspect=fixed;strokeColor=#6c8ebf;fillColor=#dae8fc;" vertex="1" parent="1">
          <mxGeometry x="390" y="140" width="40" height="40" as="geometry" />
        </mxCell>
        <mxCell id="xHsqIpkf5ebv9PDI0sne-32" value="&lt;font color=&quot;#000000&quot;&gt;Needs&lt;/font&gt;&lt;div&gt;&lt;font color=&quot;#000000&quot;&gt;Aid&lt;/font&gt;&lt;/div&gt;" style="edgeLabel;resizable=0;html=1;;align=center;verticalAlign=middle;strokeColor=#028090;fontColor=#E4FDE1;fillColor=#F45B69;" connectable="0" vertex="1" parent="1">
          <mxGeometry x="460.0035897435897" y="160" as="geometry" />
        </mxCell>
        <mxCell id="xHsqIpkf5ebv9PDI0sne-33" value="Log Out" style="rounded=1;whiteSpace=wrap;html=1;fillColor=#e1d5e7;strokeColor=#9673a6;" vertex="1" parent="1">
          <mxGeometry x="260" y="220" width="120" height="60" as="geometry" />
        </mxCell>
        <mxCell id="xHsqIpkf5ebv9PDI0sne-34" value="" style="endArrow=none;html=1;rounded=0;strokeColor=#028090;fontColor=#E4FDE1;fillColor=#F45B69;" edge="1" parent="1" source="xHsqIpkf5ebv9PDI0sne-30">
          <mxGeometry width="50" height="50" relative="1" as="geometry">
            <mxPoint x="390" y="170" as="sourcePoint" />
            <mxPoint x="410" y="250" as="targetPoint" />
          </mxGeometry>
        </mxCell>
        <mxCell id="xHsqIpkf5ebv9PDI0sne-35" value="" style="endArrow=classic;html=1;rounded=0;strokeColor=#028090;fontColor=#E4FDE1;fillColor=#F45B69;entryX=1;entryY=0.5;entryDx=0;entryDy=0;" edge="1" parent="1" target="xHsqIpkf5ebv9PDI0sne-33">
          <mxGeometry width="50" height="50" relative="1" as="geometry">
            <mxPoint x="410" y="250" as="sourcePoint" />
            <mxPoint x="500" y="130" as="targetPoint" />
          </mxGeometry>
        </mxCell>
        <mxCell id="xHsqIpkf5ebv9PDI0sne-36" value="&lt;font color=&quot;#000000&quot;&gt;Done for&lt;/font&gt;&lt;div&gt;&lt;font color=&quot;#000000&quot;&gt;Now&lt;/font&gt;&lt;/div&gt;" style="edgeLabel;resizable=0;html=1;;align=center;verticalAlign=middle;strokeColor=#028090;fontColor=#E4FDE1;fillColor=#F45B69;" connectable="0" vertex="1" parent="1">
          <mxGeometry x="410.0035897435897" y="210" as="geometry" />
        </mxCell>
        <mxCell id="xHsqIpkf5ebv9PDI0sne-37" value="Given suggested treatment options" style="rounded=1;whiteSpace=wrap;html=1;fillColor=#e1d5e7;strokeColor=#9673a6;" vertex="1" parent="1">
          <mxGeometry x="690" y="60" width="120" height="60" as="geometry" />
        </mxCell>
        <mxCell id="xHsqIpkf5ebv9PDI0sne-39" value="" style="endArrow=classic;html=1;rounded=0;strokeColor=#028090;fontColor=#E4FDE1;fillColor=#F45B69;entryX=0;entryY=0.5;entryDx=0;entryDy=0;exitX=1;exitY=0.5;exitDx=0;exitDy=0;" edge="1" parent="1" source="xHsqIpkf5ebv9PDI0sne-19" target="xHsqIpkf5ebv9PDI0sne-37">
          <mxGeometry width="50" height="50" relative="1" as="geometry">
            <mxPoint x="500" y="170" as="sourcePoint" />
            <mxPoint x="500" y="130" as="targetPoint" />
          </mxGeometry>
        </mxCell>
        <mxCell id="xHsqIpkf5ebv9PDI0sne-38" value="WAIT" style="ellipse;whiteSpace=wrap;html=1;aspect=fixed;strokeColor=#6c8ebf;fillColor=#dae8fc;" vertex="1" parent="1">
          <mxGeometry x="600" y="70" width="40" height="40" as="geometry" />
        </mxCell>
        <mxCell id="xHsqIpkf5ebv9PDI0sne-41" value="Pick Option" style="ellipse;whiteSpace=wrap;html=1;aspect=fixed;strokeColor=#6c8ebf;fillColor=#dae8fc;" vertex="1" parent="1">
          <mxGeometry x="890" y="50" width="80" height="80" as="geometry" />
        </mxCell>
        <mxCell id="xHsqIpkf5ebv9PDI0sne-42" value="" style="endArrow=classic;html=1;rounded=0;strokeColor=#028090;fontColor=#E4FDE1;fillColor=#F45B69;entryX=0;entryY=0.5;entryDx=0;entryDy=0;" edge="1" parent="1">
          <mxGeometry width="50" height="50" relative="1" as="geometry">
            <mxPoint x="810" y="90" as="sourcePoint" />
            <mxPoint x="890" y="89.63" as="targetPoint" />
          </mxGeometry>
        </mxCell>
        <mxCell id="xHsqIpkf5ebv9PDI0sne-44" value="Hospital" style="rounded=1;whiteSpace=wrap;html=1;strokeColor=#9673a6;fillColor=#e1d5e7;" vertex="1" parent="1">
          <mxGeometry x="1030" y="60" width="120" height="60" as="geometry" />
        </mxCell>
        <mxCell id="xHsqIpkf5ebv9PDI0sne-45" value="Primary Doctor&lt;span style=&quot;color: rgba(0, 0, 0, 0); font-family: monospace; font-size: 0px; text-align: start; text-wrap: nowrap;&quot;&gt;%3CmxGraphModel%3E%3Croot%3E%3CmxCell%20id%3D%220%22%2F%3E%3CmxCell%20id%3D%221%22%20parent%3D%220%22%2F%3E%3CmxCell%20id%3D%222%22%20value%3D%22Hospital%22%20style%3D%22rounded%3D1%3BwhiteSpace%3Dwrap%3Bhtml%3D1%3BstrokeColor%3D%239673a6%3BfillColor%3D%23e1d5e7%3B%22%20vertex%3D%221%22%20parent%3D%221%22%3E%3CmxGeometry%20x%3D%221030%22%20y%3D%2260%22%20width%3D%22120%22%20height%3D%2260%22%20as%3D%22geometry%22%2F%3E%3C%2FmxCell%3E%3C%2Froot%3E%3C%2FmxGraphModel%3E&lt;/span&gt;" style="rounded=1;whiteSpace=wrap;html=1;strokeColor=#9673a6;fillColor=#e1d5e7;" vertex="1" parent="1">
          <mxGeometry x="1030" y="140" width="120" height="60" as="geometry" />
        </mxCell>
        <mxCell id="xHsqIpkf5ebv9PDI0sne-46" value="Other" style="rounded=1;whiteSpace=wrap;html=1;strokeColor=#9673a6;fillColor=#e1d5e7;" vertex="1" parent="1">
          <mxGeometry x="1030" y="-20" width="120" height="60" as="geometry" />
        </mxCell>
        <mxCell id="xHsqIpkf5ebv9PDI0sne-47" value="No Care" style="rounded=1;whiteSpace=wrap;html=1;strokeColor=#9673a6;fillColor=#e1d5e7;" vertex="1" parent="1">
          <mxGeometry x="870" y="-100" width="120" height="60" as="geometry" />
        </mxCell>
        <mxCell id="xHsqIpkf5ebv9PDI0sne-48" value="Pharmacy" style="rounded=1;whiteSpace=wrap;html=1;strokeColor=#9673a6;fillColor=#e1d5e7;" vertex="1" parent="1">
          <mxGeometry x="870" y="220" width="120" height="60" as="geometry" />
        </mxCell>
        <mxCell id="xHsqIpkf5ebv9PDI0sne-49" value="" style="endArrow=classic;html=1;rounded=0;strokeColor=#028090;fontColor=#E4FDE1;fillColor=#F45B69;entryX=0;entryY=0.5;entryDx=0;entryDy=0;exitX=1;exitY=0.5;exitDx=0;exitDy=0;" edge="1" parent="1" source="xHsqIpkf5ebv9PDI0sne-41" target="xHsqIpkf5ebv9PDI0sne-44">
          <mxGeometry width="50" height="50" relative="1" as="geometry">
            <mxPoint x="820" y="100" as="sourcePoint" />
            <mxPoint x="900" y="99.63" as="targetPoint" />
          </mxGeometry>
        </mxCell>
        <mxCell id="xHsqIpkf5ebv9PDI0sne-50" value="" style="endArrow=classic;html=1;rounded=0;strokeColor=#028090;fontColor=#E4FDE1;fillColor=#F45B69;entryX=0.5;entryY=1;entryDx=0;entryDy=0;exitX=0.5;exitY=0;exitDx=0;exitDy=0;" edge="1" parent="1" source="xHsqIpkf5ebv9PDI0sne-41" target="xHsqIpkf5ebv9PDI0sne-47">
          <mxGeometry width="50" height="50" relative="1" as="geometry">
            <mxPoint x="980" y="100" as="sourcePoint" />
            <mxPoint x="1040" y="100" as="targetPoint" />
          </mxGeometry>
        </mxCell>
        <mxCell id="xHsqIpkf5ebv9PDI0sne-51" value="" style="endArrow=classic;html=1;rounded=0;strokeColor=#028090;fontColor=#E4FDE1;fillColor=#F45B69;exitX=0.5;exitY=1;exitDx=0;exitDy=0;" edge="1" parent="1" source="xHsqIpkf5ebv9PDI0sne-41" target="xHsqIpkf5ebv9PDI0sne-48">
          <mxGeometry width="50" height="50" relative="1" as="geometry">
            <mxPoint x="940" y="60" as="sourcePoint" />
            <mxPoint x="940" y="-30" as="targetPoint" />
          </mxGeometry>
        </mxCell>
        <mxCell id="xHsqIpkf5ebv9PDI0sne-52" value="" style="endArrow=classic;html=1;rounded=0;strokeColor=#028090;fontColor=#E4FDE1;fillColor=#F45B69;entryX=0;entryY=0.5;entryDx=0;entryDy=0;" edge="1" parent="1" target="xHsqIpkf5ebv9PDI0sne-46">
          <mxGeometry width="50" height="50" relative="1" as="geometry">
            <mxPoint x="930" y="10" as="sourcePoint" />
            <mxPoint x="950" y="-20" as="targetPoint" />
          </mxGeometry>
        </mxCell>
        <mxCell id="xHsqIpkf5ebv9PDI0sne-53" value="" style="endArrow=classic;html=1;rounded=0;strokeColor=#028090;fontColor=#E4FDE1;fillColor=#F45B69;entryX=0;entryY=0.5;entryDx=0;entryDy=0;" edge="1" parent="1">
          <mxGeometry width="50" height="50" relative="1" as="geometry">
            <mxPoint x="930" y="169.63" as="sourcePoint" />
            <mxPoint x="1030" y="169.63" as="targetPoint" />
          </mxGeometry>
        </mxCell>
        <mxCell id="xHsqIpkf5ebv9PDI0sne-55" value="Give wait time" style="rounded=1;whiteSpace=wrap;html=1;strokeColor=#9673a6;fillColor=#e1d5e7;" vertex="1" parent="1">
          <mxGeometry x="1210" y="60" width="120" height="60" as="geometry" />
        </mxCell>
        <mxCell id="xHsqIpkf5ebv9PDI0sne-56" value="" style="endArrow=classic;html=1;rounded=0;strokeColor=#028090;fontColor=#E4FDE1;fillColor=#F45B69;entryX=0;entryY=0.5;entryDx=0;entryDy=0;exitX=1;exitY=0.5;exitDx=0;exitDy=0;" edge="1" parent="1">
          <mxGeometry width="50" height="50" relative="1" as="geometry">
            <mxPoint x="1150" y="89.63" as="sourcePoint" />
            <mxPoint x="1210" y="89.63" as="targetPoint" />
          </mxGeometry>
        </mxCell>
        <mxCell id="xHsqIpkf5ebv9PDI0sne-57" value="Go to Hospital" style="rounded=1;whiteSpace=wrap;html=1;strokeColor=#9673a6;fillColor=#e1d5e7;" vertex="1" parent="1">
          <mxGeometry x="1390" y="60" width="120" height="60" as="geometry" />
        </mxCell>
        <mxCell id="xHsqIpkf5ebv9PDI0sne-58" value="" style="endArrow=classic;html=1;rounded=0;strokeColor=#028090;fontColor=#E4FDE1;fillColor=#F45B69;entryX=0;entryY=0.5;entryDx=0;entryDy=0;exitX=1;exitY=0.5;exitDx=0;exitDy=0;" edge="1" parent="1">
          <mxGeometry width="50" height="50" relative="1" as="geometry">
            <mxPoint x="1330" y="89.63" as="sourcePoint" />
            <mxPoint x="1390" y="89.63" as="targetPoint" />
          </mxGeometry>
        </mxCell>
        <mxCell id="xHsqIpkf5ebv9PDI0sne-59" value="Go to PCP" style="rounded=1;whiteSpace=wrap;html=1;strokeColor=#9673a6;fillColor=#e1d5e7;" vertex="1" parent="1">
          <mxGeometry x="1210" y="140" width="120" height="60" as="geometry" />
        </mxCell>
        <mxCell id="xHsqIpkf5ebv9PDI0sne-60" value="" style="endArrow=classic;html=1;rounded=0;strokeColor=#028090;fontColor=#E4FDE1;fillColor=#F45B69;entryX=0;entryY=0.5;entryDx=0;entryDy=0;exitX=1;exitY=0.5;exitDx=0;exitDy=0;" edge="1" parent="1">
          <mxGeometry width="50" height="50" relative="1" as="geometry">
            <mxPoint x="1150" y="169.63" as="sourcePoint" />
            <mxPoint x="1210" y="169.63" as="targetPoint" />
          </mxGeometry>
        </mxCell>
        <mxCell id="xHsqIpkf5ebv9PDI0sne-61" value="Get over the counter medicine" style="rounded=1;whiteSpace=wrap;html=1;strokeColor=#9673a6;fillColor=#e1d5e7;" vertex="1" parent="1">
          <mxGeometry x="870" y="330" width="120" height="60" as="geometry" />
        </mxCell>
        <mxCell id="xHsqIpkf5ebv9PDI0sne-62" value="" style="endArrow=classic;html=1;rounded=0;strokeColor=#028090;fontColor=#E4FDE1;fillColor=#F45B69;exitX=0.5;exitY=1;exitDx=0;exitDy=0;" edge="1" parent="1" source="xHsqIpkf5ebv9PDI0sne-48">
          <mxGeometry width="50" height="50" relative="1" as="geometry">
            <mxPoint x="930" y="300" as="sourcePoint" />
            <mxPoint x="930" y="330" as="targetPoint" />
          </mxGeometry>
        </mxCell>
      </root>
    </mxGraphModel>
  </diagram>
</mxfile>
